<?xml version="1.0" encoding="utf-8"?>
<svg xmlns="http://www.w3.org/2000/svg" fill="none" height="17" viewBox="0 0 102 17" width="102">
<rect fill="#00AD70" height="16" width="16" x="0.61084" y="0.530273"/>
<path d="M11.05 10.8221L12.072 14.1307L8.61261 11.4866L11.05 10.8221ZM14.2107 7.21035H9.93374L8.61308 2.93066L7.28774 7.21133L3.01074 7.20544L6.47434 9.85393L5.14901 14.1302L8.61261 11.4861L10.7513 9.85393L14.2107 7.21084V7.21035Z" fill="white"/>
<rect fill="#00AD70" height="16" width="16" x="20.6108" y="0.530273"/>
<path d="M31.05 10.8221L32.072 14.1307L28.6126 11.4866L31.05 10.8221ZM34.2107 7.21035H29.9337L28.6131 2.93066L27.2877 7.21133L23.0107 7.20544L26.4743 9.85393L25.149 14.1302L28.6126 11.4861L30.7513 9.85393L34.2107 7.21084V7.21035Z" fill="white"/>
<rect fill="#00AD70" height="16" width="16" x="40.6108" y="0.530273"/>
<path d="M51.05 10.8221L52.072 14.1307L48.6126 11.4866L51.05 10.8221ZM54.2107 7.21035H49.9337L48.6131 2.93066L47.2877 7.21133L43.0107 7.20544L46.4743 9.85393L45.149 14.1302L48.6126 11.4861L50.7513 9.85393L54.2107 7.21084V7.21035Z" fill="white"/>
<rect fill="#00AD70" height="16" width="16" x="60.6108" y="0.530273"/>
<path d="M71.05 10.8221L72.072 14.1307L68.6126 11.4866L71.05 10.8221ZM74.2107 7.21035H69.9337L68.6131 2.93066L67.2877 7.21133L63.0107 7.20544L66.4743 9.85393L65.149 14.1302L68.6126 11.4861L70.7513 9.85393L74.2107 7.21084V7.21035Z" fill="white"/>
<rect fill="#DCDCE6" height="16" width="16" x="80.6108" y="0.530273"/>
<rect fill="url(#paint0_linear_903_9426)" height="16" width="16" x="80.6108" y="0.530273"/>
<path d="M91.05 10.8221L92.072 14.1307L88.6126 11.4866L91.05 10.8221ZM94.2107 7.21035H89.9337L88.6131 2.93066L87.2877 7.21133L83.0107 7.20544L86.4743 9.85393L85.149 14.1302L88.6126 11.4861L90.7513 9.85393L94.2107 7.21084V7.21035Z" fill="white"/>
<defs>
<linearGradient gradientUnits="userSpaceOnUse" id="paint0_linear_903_9426" x1="80.6108" x2="88.6108" y1="8.13027" y2="8.13027">
<stop stop-color="#00AD70"/>
<stop offset="0.998594" stop-color="#00B67A"/>
<stop offset="1" stop-color="#DCDCE6"/>
</linearGradient>
</defs>
</svg>